<?xml version="1.0" encoding="utf-8"?>
<!-- Svg Vector Icons : http://www.onlinewebfonts.com/icon -->
<!DOCTYPE svg PUBLIC "-//W3C//DTD SVG 1.1//EN" "http://www.w3.org/Graphics/SVG/1.1/DTD/svg11.dtd">
<svg version="1.1" xmlns="http://www.w3.org/2000/svg" xmlns:xlink="http://www.w3.org/1999/xlink" x="0px" y="0px" viewBox="0 0 256 256" enable-background="new 0 0 256 256" xml:space="preserve">
<metadata> Svg Vector Icons : http://www.onlinewebfonts.com/icon </metadata>
<g><g><g><path fill="#FF0000" d="M109.5,10.8c-6.5,1.8-11.5,5.8-14.6,12c-1.7,3.3-1.7,3.7-1.9,15.1c-0.2,11.2-0.2,11.7,1.1,13c3.6,3.9,13.4,3,15.4-1.4c0.4-0.9,0.7-5.3,0.7-10.4c0-8.1,0.1-9.1,1.2-10.2c0.7-0.7,1.9-1.4,2.7-1.5c0.7-0.2,7.7-0.3,15.5-0.2l14.1,0.2l1.5,1.7c1.4,1.7,1.5,2.1,1.5,11.2c0,10.2,0,10.2,3.7,12.1c2.2,1.2,8,1,10.3-0.2c3.2-1.7,3.4-2.6,3.1-14.3c-0.2-10.3-0.2-10.6-2.1-14.6c-2.4-5.1-6.2-9-11.4-11.4l-4-1.9L129.5,10C116.2,9.9,112.2,10.1,109.5,10.8z"/><path fill="#FF0000" d="M78.3,19.5C60.2,23.9,47.3,30,40,37.8c-6.5,6.9-8.3,12-8.3,24c0,11.4,1.8,17.1,7.1,22.8l2.7,2.8l4.4,42.6c2.4,23.5,5.4,52.3,6.5,64.2c2.2,21.5,2.2,21.6,4.3,26c6.2,12.8,23,21.1,50.6,25.1c8.6,1.2,35.3,1,44.1-0.4c25.9-4,42.1-12.3,48.1-24.6c2.2-4.4,1.5,1.5,12.2-103.3l3-29l2.5-3.1c6-7.2,7.1-10.8,7.1-23.1c0-11.7-1-15.4-6.1-22.1c-6-7.9-23.5-16.5-41.2-20.4l-5.6-1.2l1.2,3.1c0.7,1.7,1.4,5.3,1.6,8l0.4,4.9l6.2,1.7c19.9,5.6,30.7,14.3,28.1,22.9c-1,3.5-6.5,8.8-12.1,11.7C165,87,94.3,87.5,61,71.2c-12.3-6-16.6-13.1-12.3-20.4c3.6-6.1,14.1-11.5,32.2-16.6c0.4-0.1,0.9-2.1,1-4.4c0.2-2.3,0.9-5.9,1.6-8c0.7-2,1.2-3.6,1.1-3.7C84.5,18.1,81.7,18.7,78.3,19.5z M73.6,103.1c2.4,0.7,5.9,3.8,7.2,6.4c0.6,1.2,2.2,14.6,4.9,40.7c2.2,21.5,4.4,42.8,4.9,47.5c0.5,4.6,0.9,10,0.9,11.9c0,3-0.2,3.5-1.9,4.9c-4.2,3.6-11.4,0.4-13.5-5.9c-0.7-2.2-10.6-95.9-10.6-100.5c-0.1-2.2,0.2-3,1.6-4.1C69,102.3,70.4,102.1,73.6,103.1z M189.4,103.7c1.4,1,1.6,1.7,1.6,4.3c0,4.6-9.8,97.5-10.6,100.3c-1.4,4.9-7,8.6-11.4,7.5c-1.9-0.5-3.8-2.5-4.1-4.3c-0.5-2.7,9.8-100.2,10.8-102C178.7,103.7,185.7,100.8,189.4,103.7z M132.5,111.8c0.7,0.4,1.9,1.3,2.4,2c1,1.2,1.1,4.9,1.1,53v51.6l-1.5,1.9c-4.1,4.8-12.2,3.5-13.9-2.3c-0.5-1.5-0.6-18.1-0.5-52.7c0.2-49.4,0.2-50.4,1.4-51.8c0.7-0.7,1.8-1.6,2.5-1.9C125.8,110.9,131,111,132.5,111.8z"/></g></g></g>
</svg>